<?xml version="1.0" encoding="UTF-8" standalone="no"?>
<svg
   xmlns:dc="http://purl.org/dc/elements/1.1/"
   xmlns:cc="http://creativecommons.org/ns#"
   xmlns:rdf="http://www.w3.org/1999/02/22-rdf-syntax-ns#"
   xmlns:svg="http://www.w3.org/2000/svg"
   xmlns="http://www.w3.org/2000/svg"
   xmlns:xlink="http://www.w3.org/1999/xlink"
   xmlns:sodipodi="http://sodipodi.sourceforge.net/DTD/sodipodi-0.dtd"
   xmlns:inkscape="http://www.inkscape.org/namespaces/inkscape"
   aria-hidden="true"
   focusable="false"
   data-prefix="fas"
   data-icon="compress-arrows-alt"
   class="svg-inline--fa fa-compress-arrows-alt fa-w-16"
   role="img"
   viewBox="0 0 1024 1024"
   version="1.1"
   id="svg12"
   sodipodi:docname="compress-arrows-alt-solid.svg"
   width="1024"
   height="1024"
   inkscape:version="1.0.1 (c497b03c, 2020-09-10)">
  <metadata
     id="metadata18">
    <rdf:RDF>
      <cc:Work
         rdf:about="">
        <dc:format>image/svg+xml</dc:format>
        <dc:type
           rdf:resource="http://purl.org/dc/dcmitype/StillImage" />
        <dc:title></dc:title>
      </cc:Work>
    </rdf:RDF>
  </metadata>
  <defs
     id="defs16">
    <linearGradient
       inkscape:collect="always"
       id="linearGradient899">
      <stop
         style="stop-color:#5599ff;stop-opacity:1"
         offset="0"
         id="stop895" />
      <stop
         style="stop-color:#2a7fff;stop-opacity:1"
         offset="1"
         id="stop897" />
    </linearGradient>
    <filter
       inkscape:collect="always"
       style="color-interpolation-filters:sRGB"
       id="filter871"
       x="-0.012"
       width="1.024"
       y="-0.012"
       height="1.024">
      <feGaussianBlur
         inkscape:collect="always"
         stdDeviation="3.2581818"
         id="feGaussianBlur873" />
    </filter>
    <radialGradient
       inkscape:collect="always"
       xlink:href="#linearGradient899"
       id="radialGradient901"
       cx="533.26068"
       cy="520.45557"
       fx="533.26068"
       fy="520.45557"
       r="512"
       gradientUnits="userSpaceOnUse"
       gradientTransform="matrix(0,0.9056026,-0.90246806,0,983.85027,36.552087)" />
  </defs>
  <sodipodi:namedview
     pagecolor="#ffffff"
     bordercolor="#666666"
     borderopacity="1"
     objecttolerance="10"
     gridtolerance="10"
     guidetolerance="10"
     inkscape:pageopacity="0"
     inkscape:pageshadow="2"
     inkscape:window-width="1440"
     inkscape:window-height="804"
     id="namedview14"
     showgrid="false"
     inkscape:zoom="0.44056067"
     inkscape:cx="-137.34756"
     inkscape:cy="575.2295"
     inkscape:window-x="0"
     inkscape:window-y="23"
     inkscape:window-maximized="1"
     inkscape:current-layer="svg12" />
  <rect
     style="fill:url(#radialGradient901);stroke-width:20.1251;fill-opacity:1"
     id="rect20"
     width="1024"
     height="1024"
     x="0"
     y="0"
     rx="343.47333"
     ry="343.47333"
     inkscape:export-xdpi="90"
     inkscape:export-ydpi="90" />
  <path
     fill="currentColor"
     d="m 440.76335,574.78888 h -142.5733 c -27.24169,0 -40.86253,32.83636 -21.6406,52.18181 l 41.88092,39.45455 -126.27921,126.38181 c -7.89245,7.89092 -7.89245,20.87274 0,28.76364 l 32.33358,32.32728 c 7.89246,7.89091 20.8768,7.89091 28.76926,0 l 126.40651,-126.38182 39.58954,42 c 19.22194,19.21818 52.06472,5.6 52.06472,-21.63637 V 605.33434 c 0,-16.92729 -13.62084,-30.54546 -30.55142,-30.54546 z m 142.5733,-81.45454 h 142.5733 c 27.24169,0 40.86253,-32.96365 21.6406,-52.18183 L 705.54234,401.69797 831.94885,275.31615 c 7.89243,-7.8909 7.89243,-20.87272 0,-28.76364 l -32.3336,-32.32727 c -7.89244,-7.89091 -20.8768,-7.89091 -28.76925,0 L 644.43949,340.60706 604.84995,298.60707 c -19.22194,-19.21819 -52.06472,-5.60001 -52.06472,21.63635 v 142.54546 c 0,16.92726 13.62084,30.54546 30.55142,30.54546 z m 122.20569,173.0909 42.00821,-39.58182 c 19.22193,-19.21818 5.60109,-52.05454 -21.6406,-52.05454 h -142.5733 c -16.93058,0 -30.55142,13.61817 -30.55142,30.54546 v 142.54544 c 0,27.23637 32.97008,40.85455 52.192,21.63637 L 644.43949,727.64342 770.846,854.02524 c 7.89245,7.89091 20.87681,7.89091 28.76925,0 l 32.3336,-32.32727 c 7.89243,-7.89092 7.89243,-20.87274 0,-28.76364 z M 419.12276,298.73433 379.66051,340.60706 253.254,214.22524 c -7.89246,-7.89091 -20.8768,-7.89091 -28.76926,0 l -32.33358,32.32727 c -7.89245,7.89092 -7.89245,20.87274 0,28.76364 l 126.4065,126.38182 -42.00821,39.58182 c -19.22193,19.21818 -5.60109,52.05455 21.6406,52.05455 h 142.5733 c 16.93058,0 30.55142,-13.6182 30.55142,-30.54546 V 320.24342 c 0,-27.10909 -32.97008,-40.72727 -52.19201,-21.50909 z"
     id="path22"
     style="opacity:0.25;fill:#1a1a1a;stroke-width:1.27285;filter:url(#filter871)" />
  <path
     fill="currentColor"
     d="m 440.76335,552.71364 h -142.5733 c -27.24169,0 -40.86253,32.83636 -21.6406,52.18181 L 318.43037,644.35 192.15116,770.73181 c -7.89245,7.89092 -7.89245,20.87274 0,28.76364 l 32.33358,32.32728 c 7.89246,7.89091 20.8768,7.89091 28.76926,0 l 126.40651,-126.38182 39.58954,42 c 19.22194,19.21818 52.06472,5.6 52.06472,-21.63637 V 583.2591 c 0,-16.92729 -13.62084,-30.54546 -30.55142,-30.54546 z m 142.5733,-81.45454 h 142.5733 c 27.24169,0 40.86253,-32.96365 21.6406,-52.18183 L 705.54234,379.62273 831.94885,253.24091 c 7.89243,-7.8909 7.89243,-20.87272 0,-28.76364 L 799.61525,192.15 c -7.89244,-7.89091 -20.8768,-7.89091 -28.76925,0 L 644.43949,318.53182 604.84995,276.53183 c -19.22194,-19.21819 -52.06472,-5.60001 -52.06472,21.63635 v 142.54546 c 0,16.92726 13.62084,30.54546 30.55142,30.54546 z M 705.54234,644.35 747.55055,604.76818 c 19.22193,-19.21818 5.60109,-52.05454 -21.6406,-52.05454 h -142.5733 c -16.93058,0 -30.55142,13.61817 -30.55142,30.54546 v 142.54544 c 0,27.23637 32.97008,40.85455 52.192,21.63637 L 644.43949,705.56818 770.846,831.95 c 7.89245,7.89091 20.87681,7.89091 28.76925,0 l 32.3336,-32.32727 c 7.89243,-7.89092 7.89243,-20.87274 0,-28.76364 z M 419.12276,276.65909 379.66051,318.53182 253.254,192.15 c -7.89246,-7.89091 -20.8768,-7.89091 -28.76926,0 l -32.33358,32.32727 c -7.89245,7.89092 -7.89245,20.87274 0,28.76364 l 126.4065,126.38182 -42.00821,39.58182 c -19.22193,19.21818 -5.60109,52.05455 21.6406,52.05455 h 142.5733 c 16.93058,0 30.55142,-13.6182 30.55142,-30.54546 V 298.16818 c 0,-27.10909 -32.97008,-40.72727 -52.19201,-21.50909 z"
     id="path10"
     style="fill:#ffffff;stroke-width:1.27285" />
</svg>
